<svg xmlns="http://www.w3.org/2000/svg" width="26" height="21"><path fill-rule="evenodd" d="M2 5.997A17.926 17.926 0 0113.31 2c4.285 0 8.22 1.497 11.31 3.997l-1.256 1.556A15.932 15.932 0 0013.31 4C9.5 4 6.004 5.33 3.256 7.553L2 5.997zm3.14 3.89A12.948 12.948 0 0113.31 7a12.95 12.95 0 018.169 2.886l-1.257 1.556A10.954 10.954 0 0013.31 9c-2.618 0-5.023.915-6.912 2.442L5.14 9.886zm3.143 3.89A7.968 7.968 0 0113.31 12c1.904 0 3.653.665 5.027 1.776l-1.257 1.556A5.975 5.975 0 0013.31 14c-1.428 0-2.74.499-3.77 1.332l-1.257-1.556zm3.142 3.89A2.986 2.986 0 0113.31 17c.714 0 1.37.25 1.885.666L13.31 20l-1.885-2.334z"/></svg>