<svg xmlns="http://www.w3.org/2000/svg" width="20" height="23"><path fill-rule="evenodd" d="M12.662 11.004c1.376 1.97 3.732 3.793 3.732 3.793s2.063 1.748.637 4.038c-1.426 2.29-5.253 1.278-5.253 1.278s-1.52-.49-3.286-.098c-1.765.395-3.286.245-3.286.245S3 20.015 2.554 17.7c-.446-2.313 2.06-4.039 2.258-4.283.195-.247 1.512-1.073 2.452-2.658.94-1.586 3.583-2.54 5.398.245zM5.564 18.28a9.697 9.697 0 002.496-.217 8.798 8.798 0 012.98-.131c.547.067.985.165 1.288.257 1.078.275 2.61.223 3.005-.41.29-.468.253-.787-.026-1.2a1.904 1.904 0 00-.212-.26 25.657 25.657 0 01-2.496-2.278c-.573-.59-1.1-1.222-1.577-1.892l-.036-.053c-.742-1.14-1.558-1.067-2.002-.317-.28.47-.6.915-.955 1.33-.41.483-.83.891-1.305 1.298-.123.105-.503.42-.412.344-.004.003-.017.015.05-.071-.097.12-.949.877-1.2 1.162-.514.583-.722 1.08-.644 1.48.072.376.219.587.45.745.146.097.308.167.48.206l.116.007zM18.2 9.584c0 .458.19 2.393-1.553 2.432-1.742.038-1.816-1.178-1.816-2.05 0-.913.188-2.205 1.59-2.205 1.4 0 1.779 1.369 1.779 1.824v-.001zm-5.43-2.777c-1.18-.152-1.447-1.222-1.333-2.293.096-.875 1.143-2.22 1.98-2.026.838.19 1.6 1.3 1.447 2.254-.151.957-.911 2.218-2.094 2.065zM7.755 6.44c-.86 0-1.56-.993-1.56-2.22 0-1.227.699-2.22 1.56-2.22.863 0 1.56.993 1.56 2.22 0 1.227-.697 2.22-1.56 2.22zm-3.793 4.566c-1.695.365-2.326-1.597-2.14-2.515 0 0 .2-1.987 1.576-2.11 1.093-.095 1.898 1.1 1.98 1.785.052.444.284 2.475-1.416 2.84z"/></svg>