<svg xmlns="http://www.w3.org/2000/svg" width="27" height="27"><path fill-rule="evenodd" fill="#70c560" d="M10.488 12.242a14.074 14.074 0 005.27 5.27l1.178-1.65a1.334 1.334 0 011.725-.396 15.226 15.226 0 006.11 1.82A1.334 1.334 0 0126 18.614v5.949a1.333 1.333 0 01-1.197 1.326c-.707.074-1.42.11-2.136.11C11.253 26 2 16.746 2 5.333c0-.717.036-1.43.11-2.136A1.334 1.334 0 013.435 2h5.95a1.333 1.333 0 011.329 1.228 15.228 15.228 0 001.818 6.11 1.333 1.333 0 01-.395 1.726l-1.65 1.178zm-3.363-.876L9.66 9.557a17.882 17.882 0 01-1.463-4.89H4.68c-.008.22-.012.443-.012.666-.001 9.941 8.057 18 17.999 18 .222 0 .445-.004.666-.013v-3.516a17.874 17.874 0 01-4.89-1.463l-1.81 2.533a16.562 16.562 0 01-2.117-1l-.078-.044a16.738 16.738 0 01-6.269-6.269l-.044-.077a16.58 16.58 0 01-1-2.118z"/></svg>