<svg xmlns="http://www.w3.org/2000/svg" width="26" height="23"><path fill-rule="evenodd" fill="#ff6b00" d="M15.6 9H22a2 2 0 012 2v2.104c0 .261-.05.52-.15.762l-3.095 7.515a.998.998 0 01-.925.619H3a1 1 0 01-1-1V11a1 1 0 011-1h3.482a1 1 0 00.817-.423l5.453-7.727a.5.5 0 01.632-.16l1.814.908a2.5 2.5 0 011.305 2.853L15.6 9zM8 11.588V20h11.16L22 13.104V11h-6.4a1.996 1.996 0 01-1.958-1.591 2.003 2.003 0 01.02-.902l.903-3.548a.502.502 0 00-.261-.571l-.661-.33-4.71 6.672c-.25.354-.57.644-.933.858zM4 12h2v8H4v-8z"/></svg>