<svg xmlns="http://www.w3.org/2000/svg" width="36" height="36"><path fill-rule="evenodd" fill="#fff" d="M1.34 34.666l2.253-8.28A16.591 16.591 0 011.333 18C1.333 8.795 8.795 1.333 18 1.333c9.205 0 16.667 7.462 16.667 16.667 0 9.205-7.462 16.666-16.667 16.666a16.588 16.588 0 01-8.384-2.258L1.34 34.666zm8.748-5.843l1.207.705A13.259 13.259 0 0018 31.333 13.334 13.334 0 104.667 18c0 2.393.628 4.688 1.806 6.707l.704 1.206-1.089 4.002 4-1.092zm1.897-18.643c.223-.017.448-.017.672-.007.09.007.18.017.27.027.265.03.556.192.654.415.497 1.127.98 2.262 1.447 3.4.103.253.042.578-.155.895a7.221 7.221 0 01-.438.62c-.188.241-.594.685-.594.685s-.164.197-.101.442c.023.093.1.228.17.341l.098.158c.427.712 1 1.434 1.7 2.114.2.193.395.392.605.577a9.996 9.996 0 002.617 1.666l.008.004c.142.061.213.095.42.183.103.043.21.082.318.11a.585.585 0 00.612-.217c1.207-1.461 1.317-1.556 1.327-1.556v.003a.802.802 0 01.63-.212c.1.007.202.025.295.067.885.405 2.333 1.037 2.333 1.037l.97.435c.163.078.312.263.317.441.007.112.017.292-.022.622-.053.432-.183.95-.313 1.221-.09.186-.207.356-.35.504a3.973 3.973 0 01-.55.48 6.202 6.202 0 01-.209.15c-.207.131-.42.254-.638.366a3.316 3.316 0 01-1.388.384c-.308.016-.617.04-.927.023-.013 0-.946-.145-.946-.145a15.749 15.749 0 01-6.4-3.41c-.377-.331-.725-.688-1.082-1.043-1.483-1.475-2.604-3.067-3.284-4.57a5.785 5.785 0 01-.551-2.357 4.548 4.548 0 01.94-2.8c.122-.156.237-.32.435-.508.212-.2.345-.307.49-.38.193-.097.403-.153.618-.167l.002.002z"/></svg>