<svg xmlns="http://www.w3.org/2000/svg" width="36" height="36"><path fill-rule="evenodd" fill="#fff" d="M18 1.344C27.199 1.344 34.656 8.8 34.656 18c0 9.199-7.457 16.656-16.656 16.656C8.801 34.656 1.344 27.2 1.344 18S8.8 1.344 18 1.344zm0 29.99a13.335 13.335 0 000-26.667 13.333 13.333 0 000 26.666zM12.816 19.95l-4.163-1.3c-.9-.275-.905-.894.202-1.34l16.222-6.266c.941-.384 1.475.102 1.17 1.316l-2.762 13.034c-.193.928-.752 1.15-1.527.722l-4.251-3.147-1.982 1.913c-.204.197-.369.365-.682.407-.311.043-.568-.05-.756-.567l-1.45-4.785-.02.013v-.001z"/></svg>