<svg xmlns="http://www.w3.org/2000/svg"
 xmlns:xlink="http://www.w3.org/1999/xlink"
 width="21px" height="21px"  viewBox="0 0 21 21">
<path fill-rule="evenodd"  fill="#ff6b00"
 d="M18.999756,1.999939 C19.265137,1.999939 19.519531,2.1052856 19.707031,2.2928467 C19.89441,2.4801636 19.999756,2.734558 19.999756,2.9997559 C19.999756,2.9997559 19.999756,18.999939 19.999756,18.999939 C19.999756,19.265137 19.89441,19.519531 19.707031,19.707092 C19.519531,19.89441 19.265137,20.0 18.999756,20.0 C18.999756,20.0 3.0,20.0 3.0,20.0 C2.7346191,20.0 2.4802246,19.89441 2.2927246,19.707092 C2.1051025,19.519531 2.0,19.265137 2.0,18.999939 C2.0,18.999939 2.0,2.9997559 2.0,2.9997559 C2.0,2.734558 2.1051025,2.4801636 2.2927246,2.2928467 C2.4802246,2.1052856 2.7346191,1.999939 3.0,1.999939 C3.0,1.999939 18.999756,1.999939 18.999756,1.999939 ZM3.999878,11.999878 C3.999878,11.999878 10.0,11.999878 10.0,11.999878 C10.0,11.999878 10.0,17.999878 10.0,17.999878 C10.0,17.999878 3.999878,17.999878 3.999878,17.999878 C3.999878,17.999878 3.999878,11.999878 3.999878,11.999878 ZM11.999878,3.999817 C11.999878,3.999817 18.0,3.999817 18.0,3.999817 C18.0,3.999817 18.0,17.999878 18.0,17.999878 C18.0,17.999878 11.999878,17.999878 11.999878,17.999878 C11.999878,17.999878 11.999878,3.999817 11.999878,3.999817 ZM3.999878,3.999817 C3.999878,3.999817 10.0,3.999817 10.0,3.999817 C10.0,3.999817 10.0,9.999817 10.0,9.999817 C10.0,9.999817 3.999878,9.999817 3.999878,9.999817 C3.999878,9.999817 3.999878,3.999817 3.999878,3.999817 Z"/>
</svg>