<svg xmlns="http://www.w3.org/2000/svg"
 xmlns:xlink="http://www.w3.org/1999/xlink"
 width="15px" height="15px"  viewBox="0 0 15 15">
<path fill-rule="evenodd"  fill="#ff6b00"
 d="M13.333221,2.0 C13.509918,2.0 13.679626,2.0699463 13.804474,2.1949463 C13.9296875,2.3200684 13.999939,2.489746 13.999939,2.6663818 C13.999939,2.6663818 13.999939,13.33313 13.999939,13.33313 C13.999939,13.509888 13.9296875,13.6796875 13.804474,13.804443 C13.679626,13.929565 13.509918,13.999878 13.333221,13.999878 C13.333221,13.999878 2.666504,13.999878 2.666504,13.999878 C2.4895935,13.999878 2.3200989,13.929565 2.1951294,13.804443 C2.0700684,13.6796875 1.9997864,13.509888 1.9997864,13.33313 C1.9997864,13.33313 1.9997864,2.6663818 1.9997864,2.6663818 C1.9997864,2.489746 2.0700684,2.3200684 2.1951294,2.1949463 C2.3200989,2.0699463 2.4895935,2.0 2.666504,2.0 C2.666504,2.0 13.333221,2.0 13.333221,2.0 ZM3.3436584,8.656128 C3.3436584,8.656128 7.3437195,8.656128 7.3437195,8.656128 C7.3437195,8.656128 7.3437195,12.656128 7.3437195,12.656128 C7.3437195,12.656128 3.3436584,12.656128 3.3436584,12.656128 C3.3436584,12.656128 3.3436584,8.656128 3.3436584,8.656128 ZM8.65625,3.34375 C8.65625,3.34375 12.656189,3.34375 12.656189,3.34375 C12.656189,3.34375 12.656189,12.656128 12.656189,12.656128 C12.656189,12.656128 8.65625,12.656128 8.65625,12.656128 C8.65625,12.656128 8.65625,3.34375 8.65625,3.34375 ZM3.3436584,3.34375 C3.3436584,3.34375 7.3437195,3.34375 7.3437195,3.34375 C7.3437195,3.34375 7.3437195,7.343628 7.3437195,7.343628 C7.3437195,7.343628 3.3436584,7.343628 3.3436584,7.343628 C3.3436584,7.343628 3.3436584,3.34375 3.3436584,3.34375 Z"/>
</svg>