<svg xmlns="http://www.w3.org/2000/svg"
 xmlns:xlink="http://www.w3.org/1999/xlink"
 width="19px" height="24px"  viewBox="0 0 19 24">
<path fill-rule="evenodd"  fill="#ff6b00"
 d="M17.999756,22.999939 C17.999756,22.999939 15.999878,22.999939 15.999878,22.999939 C15.999878,22.999939 15.999878,20.999878 15.999878,20.999878 C15.999878,20.204224 15.683594,19.441162 15.121338,18.878662 C14.558594,18.315918 13.79541,18.0 12.999878,18.0 C12.999878,18.0 6.999878,18.0 6.999878,18.0 C6.2041016,18.0 5.441162,18.315918 4.878418,18.878662 C4.315796,19.441162 3.999878,20.204224 3.999878,20.999878 C3.999878,20.999878 3.999878,22.999939 3.999878,22.999939 C3.999878,22.999939 2.0,22.999939 2.0,22.999939 C2.0,22.999939 2.0,20.999878 2.0,20.999878 C2.0,19.673767 2.5264893,18.402039 3.4643555,17.464355 C4.4020996,16.526672 5.673828,15.999878 6.999878,15.999878 C6.999878,15.999878 12.999878,15.999878 12.999878,15.999878 C14.325928,15.999878 15.597656,16.526672 16.5354,17.464355 C17.473022,18.402039 17.999756,19.673767 17.999756,20.999878 C17.999756,20.999878 17.999756,22.999939 17.999756,22.999939 ZM9.999878,13.999817 C9.211914,13.999817 8.431641,13.844543 7.7037354,13.543091 C6.97583,13.241699 6.314331,12.799744 5.757324,12.242432 C5.199951,11.685364 4.7579346,11.023987 4.456665,10.295898 C4.1551514,9.568054 3.999878,8.787903 3.999878,7.999817 C3.999878,7.211914 4.1551514,6.4318237 4.456665,5.7036743 C4.7579346,4.97583 5.199951,4.314514 5.757324,3.757141 C6.314331,3.2000732 6.97583,2.7581787 7.7037354,2.456482 C8.431641,2.1550293 9.211914,1.9997559 9.999878,1.9997559 C11.591187,1.9997559 13.11731,2.631897 14.242432,3.757141 C15.367798,4.8824463 15.999878,6.4085083 15.999878,7.999817 C15.999878,9.591064 15.367798,11.117371 14.242432,12.242432 C13.11731,13.367676 11.591187,13.999817 9.999878,13.999817 C9.999878,13.999817 9.999878,13.999817 9.999878,13.999817 ZM9.999878,12.0 C11.060669,12.0 12.078125,11.578491 12.828247,10.828369 C13.578491,10.078308 13.999878,9.060669 13.999878,7.999817 C13.999878,6.938965 13.578491,5.92157 12.828247,5.1714478 C12.078125,4.4213867 11.060669,3.999878 9.999878,3.999878 C8.939087,3.999878 7.921509,4.4213867 7.171509,5.1714478 C6.4212646,5.92157 5.999878,6.938965 5.999878,7.999817 C5.999878,9.060669 6.4212646,10.078308 7.171509,10.828369 C7.921509,11.578491 8.939087,12.0 9.999878,12.0 C9.999878,12.0 9.999878,12.0 9.999878,12.0 Z"/>
</svg>