<svg xmlns="http://www.w3.org/2000/svg"
 xmlns:xlink="http://www.w3.org/1999/xlink"
 width="23px" height="23px"  viewBox="0 0 23 23">
<path fill-rule="evenodd"  fill="#ff6b00"
 d="M19.999756,15.999878 C19.999756,15.999878 21.999756,15.999878 21.999756,15.999878 C21.999756,15.999878 21.999756,21.999878 21.999756,21.999878 C21.999756,21.999878 15.999878,21.999878 15.999878,21.999878 C15.999878,21.999878 15.999878,19.999756 15.999878,19.999756 C15.999878,19.999756 7.999878,19.999756 7.999878,19.999756 C7.999878,19.999756 7.999878,21.999878 7.999878,21.999878 C7.999878,21.999878 2.0,21.999878 2.0,21.999878 C2.0,21.999878 2.0,15.999878 2.0,15.999878 C2.0,15.999878 4.0,15.999878 4.0,15.999878 C4.0,15.999878 4.0,7.999756 4.0,7.999756 C4.0,7.999756 2.0,7.999756 2.0,7.999756 C2.0,7.999756 2.0,1.9997559 2.0,1.9997559 C2.0,1.9997559 7.999878,1.9997559 7.999878,1.9997559 C7.999878,1.9997559 7.999878,3.999817 7.999878,3.999817 C7.999878,3.999817 15.999878,3.999817 15.999878,3.999817 C15.999878,3.999817 15.999878,1.9997559 15.999878,1.9997559 C15.999878,1.9997559 21.999756,1.9997559 21.999756,1.9997559 C21.999756,1.9997559 21.999756,7.999756 21.999756,7.999756 C21.999756,7.999756 19.999756,7.999756 19.999756,7.999756 C19.999756,7.999756 19.999756,15.999878 19.999756,15.999878 ZM17.999878,15.999878 C17.999878,15.999878 17.999878,7.999756 17.999878,7.999756 C17.999878,7.999756 15.999878,7.999756 15.999878,7.999756 C15.999878,7.999756 15.999878,5.999939 15.999878,5.999939 C15.999878,5.999939 7.999878,5.999939 7.999878,5.999939 C7.999878,5.999939 7.999878,7.999756 7.999878,7.999756 C7.999878,7.999756 5.999878,7.999756 5.999878,7.999756 C5.999878,7.999756 5.999878,15.999878 5.999878,15.999878 C5.999878,15.999878 7.999878,15.999878 7.999878,15.999878 C7.999878,15.999878 7.999878,17.999939 7.999878,17.999939 C7.999878,17.999939 15.999878,17.999939 15.999878,17.999939 C15.999878,17.999939 15.999878,15.999878 15.999878,15.999878 C15.999878,15.999878 17.999878,15.999878 17.999878,15.999878 ZM4.0,3.999817 C4.0,3.999817 4.0,5.999939 4.0,5.999939 C4.0,5.999939 5.999878,5.999939 5.999878,5.999939 C5.999878,5.999939 5.999878,3.999817 5.999878,3.999817 C5.999878,3.999817 4.0,3.999817 4.0,3.999817 ZM4.0,17.999939 C4.0,17.999939 4.0,19.999756 4.0,19.999756 C4.0,19.999756 5.999878,19.999756 5.999878,19.999756 C5.999878,19.999756 5.999878,17.999939 5.999878,17.999939 C5.999878,17.999939 4.0,17.999939 4.0,17.999939 ZM17.999878,3.999817 C17.999878,3.999817 17.999878,5.999939 17.999878,5.999939 C17.999878,5.999939 19.999756,5.999939 19.999756,5.999939 C19.999756,5.999939 19.999756,3.999817 19.999756,3.999817 C19.999756,3.999817 17.999878,3.999817 17.999878,3.999817 ZM17.999878,17.999939 C17.999878,17.999939 17.999878,19.999756 17.999878,19.999756 C17.999878,19.999756 19.999756,19.999756 19.999756,19.999756 C19.999756,19.999756 19.999756,17.999939 19.999756,17.999939 C19.999756,17.999939 17.999878,17.999939 17.999878,17.999939 Z"/>
</svg>