<svg xmlns="http://www.w3.org/2000/svg"
 xmlns:xlink="http://www.w3.org/1999/xlink"
 width="16px" height="16px"  viewBox="0 0 16 16">
<path fill-rule="evenodd"  fill="#ff6b00"
 d="M13.333221,10.666382 C13.333221,10.666382 14.666443,10.666382 14.666443,10.666382 C14.666443,10.666382 14.666443,14.666382 14.666443,14.666382 C14.666443,14.666382 10.666504,14.666382 10.666504,14.666382 C10.666504,14.666382 10.666504,13.333008 10.666504,13.333008 C10.666504,13.333008 5.3332214,13.333008 5.3332214,13.333008 C5.3332214,13.333008 5.3332214,14.666382 5.3332214,14.666382 C5.3332214,14.666382 1.3332825,14.666382 1.3332825,14.666382 C1.3332825,14.666382 1.3332825,10.666382 1.3332825,10.666382 C1.3332825,10.666382 2.666504,10.666382 2.666504,10.666382 C2.666504,10.666382 2.666504,5.333008 2.666504,5.333008 C2.666504,5.333008 1.3332825,5.333008 1.3332825,5.333008 C1.3332825,5.333008 1.3332825,1.3331299 1.3332825,1.3331299 C1.3332825,1.3331299 5.3332214,1.3331299 5.3332214,1.3331299 C5.3332214,1.3331299 5.3332214,2.6663818 5.3332214,2.6663818 C5.3332214,2.6663818 10.666504,2.6663818 10.666504,2.6663818 C10.666504,2.6663818 10.666504,1.3331299 10.666504,1.3331299 C10.666504,1.3331299 14.666443,1.3331299 14.666443,1.3331299 C14.666443,1.3331299 14.666443,5.333008 14.666443,5.333008 C14.666443,5.333008 13.333221,5.333008 13.333221,5.333008 C13.333221,5.333008 13.333221,10.666382 13.333221,10.666382 ZM11.999756,10.666382 C11.999756,10.666382 11.999756,5.333008 11.999756,5.333008 C11.999756,5.333008 10.666504,5.333008 10.666504,5.333008 C10.666504,5.333008 10.666504,3.9997559 10.666504,3.9997559 C10.666504,3.9997559 5.3332214,3.9997559 5.3332214,3.9997559 C5.3332214,3.9997559 5.3332214,5.333008 5.3332214,5.333008 C5.3332214,5.333008 3.9997559,5.333008 3.9997559,5.333008 C3.9997559,5.333008 3.9997559,10.666382 3.9997559,10.666382 C3.9997559,10.666382 5.3332214,10.666382 5.3332214,10.666382 C5.3332214,10.666382 5.3332214,11.999756 5.3332214,11.999756 C5.3332214,11.999756 10.666504,11.999756 10.666504,11.999756 C10.666504,11.999756 10.666504,10.666382 10.666504,10.666382 C10.666504,10.666382 11.999756,10.666382 11.999756,10.666382 ZM2.666504,2.6663818 C2.666504,2.6663818 2.666504,3.9997559 2.666504,3.9997559 C2.666504,3.9997559 3.9997559,3.9997559 3.9997559,3.9997559 C3.9997559,3.9997559 3.9997559,2.6663818 3.9997559,2.6663818 C3.9997559,2.6663818 2.666504,2.6663818 2.666504,2.6663818 ZM2.666504,11.999756 C2.666504,11.999756 2.666504,13.333008 2.666504,13.333008 C2.666504,13.333008 3.9997559,13.333008 3.9997559,13.333008 C3.9997559,13.333008 3.9997559,11.999756 3.9997559,11.999756 C3.9997559,11.999756 2.666504,11.999756 2.666504,11.999756 ZM11.999756,2.6663818 C11.999756,2.6663818 11.999756,3.9997559 11.999756,3.9997559 C11.999756,3.9997559 13.333221,3.9997559 13.333221,3.9997559 C13.333221,3.9997559 13.333221,2.6663818 13.333221,2.6663818 C13.333221,2.6663818 11.999756,2.6663818 11.999756,2.6663818 ZM11.999756,11.999756 C11.999756,11.999756 11.999756,13.333008 11.999756,13.333008 C11.999756,13.333008 13.333221,13.333008 13.333221,13.333008 C13.333221,13.333008 13.333221,11.999756 13.333221,11.999756 C13.333221,11.999756 11.999756,11.999756 11.999756,11.999756 Z"/>
</svg>