<svg xmlns="http://www.w3.org/2000/svg"
 xmlns:xlink="http://www.w3.org/1999/xlink"
 width="21px" height="23px"  viewBox="0 0 21 23">
<path fill-rule="evenodd"  fill="#000000"
 d="M7.999878,2.0029297 C7.999878,2.0029297 7.999878,1.9998779 7.999878,1.9998779 C7.999878,1.9998779 18.997803,1.9998779 18.997803,1.9998779 C19.549805,1.9998779 19.999756,2.454712 19.999756,2.9919434 C19.999756,2.9919434 19.999756,21.007935 19.999756,21.007935 C19.999512,21.271118 19.894897,21.523438 19.708618,21.709473 C19.52246,21.895508 19.269897,22.0 19.006836,22.0 C19.006836,22.0 2.9926758,22.0 2.9926758,22.0 C2.8613281,21.998901 2.7316895,21.97229 2.6107178,21.92102 C2.489746,21.870117 2.3798828,21.795532 2.2878418,21.701904 C2.1955566,21.60852 2.1228027,21.497803 2.0732422,21.37622 C2.0238037,21.254272 1.9990234,21.124146 2.0,20.99292 C2.0,20.99292 2.0,7.999878 2.0,7.999878 C2.0,7.999878 7.999878,2.0029297 7.999878,2.0029297 ZM9.999878,4.0 C9.999878,4.0 9.999878,8.999878 9.999878,8.999878 C9.999878,9.265137 9.894409,9.519531 9.706909,9.707031 C9.519287,9.894409 9.265137,10.0 8.999878,10.0 C8.999878,10.0 3.999878,10.0 3.999878,10.0 C3.999878,10.0 3.999878,19.999878 3.999878,19.999878 C3.999878,19.999878 17.999878,19.999878 17.999878,19.999878 C17.999878,19.999878 17.999878,4.0 17.999878,4.0 C17.999878,4.0 9.999878,4.0 9.999878,4.0 ZM4.829956,7.999878 C4.829956,7.999878 7.999878,7.999878 7.999878,7.999878 C7.999878,7.999878 7.999878,4.829712 7.999878,4.829712 C7.999878,4.829712 4.829956,7.999878 4.829956,7.999878 Z"/>
</svg>