<svg xmlns="http://www.w3.org/2000/svg"
 xmlns:xlink="http://www.w3.org/1999/xlink"
 width="20px" height="23px"  viewBox="0 0 20 23">
<path fill-rule="evenodd"  fill="#000000"
 d="M12.661987,11.003906 C14.037689,12.973755 16.39392,14.796875 16.39392,14.796875 C16.39392,14.796875 18.456818,16.544922 17.030762,18.834839 C15.604828,21.125 11.777832,20.112793 11.777832,20.112793 C11.777832,20.112793 10.257935,19.622925 8.49176,20.015015 C6.7267456,20.40979 5.2059326,20.26001 5.2059326,20.26001 C5.2059326,20.26001 2.9998474,20.015015 2.553772,17.700806 C2.1079102,15.386841 4.613922,13.661011 4.811798,13.416992 C5.0068054,13.169922 6.3239136,12.343994 7.2637024,10.758911 C8.203827,9.172852 10.846741,8.218872 12.661987,11.003906 ZM5.563904,18.279785 C6.4018555,18.315796 7.240814,18.242798 8.059753,18.062988 C9.038452,17.850098 10.046326,17.805542 11.039795,17.931885 C11.5868225,17.99878 12.02478,18.096924 12.327698,18.188965 C13.405975,18.463745 14.937866,18.411743 15.332825,17.77893 C15.623718,17.310791 15.585846,16.991821 15.306946,16.579834 C15.244019,16.48706 15.173035,16.400024 15.094879,16.319824 C14.843231,16.118774 14.595581,15.912598 14.351807,15.702026 C13.74173,15.176514 13.15683,14.622437 12.598816,14.04187 C12.025696,13.451904 11.498474,12.819092 11.02182,12.148926 C11.02182,12.148926 10.985779,12.095825 10.985779,12.095825 C10.243835,10.956909 9.427887,11.028809 8.983856,11.778931 C8.704041,12.249023 8.384399,12.694336 8.028748,13.109863 C7.618683,13.591919 7.1987,14.0 6.723755,14.406982 C6.600952,14.511963 6.2206726,14.826904 6.3118896,14.7508545 C6.307892,14.753906 6.294739,14.765869 6.362915,14.679932 C6.264862,14.800049 5.412964,15.556763 5.162903,15.841919 C4.6479187,16.424927 4.4397583,16.921997 4.517914,17.322021 C4.5897827,17.697876 4.7369385,17.908813 4.9676514,18.066895 C5.113922,18.164429 5.276428,18.234253 5.447876,18.272827 C5.447876,18.272827 5.563904,18.279785 5.563904,18.279785 C5.563904,18.279785 5.563904,18.279785 5.563904,18.279785 ZM18.200806,9.583984 C18.200806,10.041992 18.3909,11.976807 16.647858,12.015869 C14.905945,12.053955 14.831909,10.837891 14.831909,9.965942 C14.831909,9.052734 15.019928,7.7608643 16.421814,7.7608643 C17.8219,7.7608643 18.200806,9.129883 18.200806,9.584961 C18.200806,9.584961 18.200806,9.583984 18.200806,9.583984 ZM12.770813,6.806885 C11.590942,6.6550293 11.323822,5.584839 11.437805,4.513916 C11.533813,3.638794 12.5807495,2.2949219 13.418884,2.487915 C14.255798,2.6778564 15.018799,3.7878418 14.864746,4.7418213 C14.713684,5.6989746 13.953796,6.959839 12.770813,6.806885 C12.770813,6.806885 12.770813,6.806885 12.770813,6.806885 ZM7.755005,6.4399414 C6.8948364,6.4399414 6.194824,5.4468994 6.194824,4.2199707 C6.194824,2.993042 6.893921,1.9998779 7.755005,1.9998779 C8.617767,1.9998779 9.314819,2.993042 9.314819,4.2199707 C9.314819,5.4468994 8.617767,6.4399414 7.755005,6.4399414 C7.755005,6.4399414 7.755005,6.4399414 7.755005,6.4399414 ZM3.961975,11.005737 C2.2667542,11.37085 1.6358337,9.408813 1.8218079,8.490723 C1.8218079,8.490723 2.0218506,6.5039062 3.3978882,6.3809814 C4.4907837,6.2857666 5.2958984,7.4819336 5.378845,8.1657715 C5.429779,8.609863 5.661743,10.640991 3.961975,11.005737 Z"/>
</svg>