<svg xmlns="http://www.w3.org/2000/svg"
 xmlns:xlink="http://www.w3.org/1999/xlink"
 width="23px" height="22px"  viewBox="0 0 23 22">
<path fill-rule="evenodd"  fill="#000000"
 d="M15.413879,4.999756 C15.413879,4.999756 21.007751,4.999756 21.007751,4.999756 C21.555847,4.999756 21.999878,5.444824 21.999878,5.999878 C21.999878,5.999878 21.999878,20.0 21.999878,20.0 C21.999878,20.55188 21.544739,21.0 21.007751,21.0 C21.007751,21.0 2.9919434,21.0 2.9919434,21.0 C2.860962,20.999512 2.7315674,20.973633 2.6105957,20.923096 C2.4898682,20.87268 2.380249,20.798706 2.288208,20.70581 C2.1958618,20.612915 2.1230469,20.502686 2.0735474,20.381592 C2.024109,20.260498 1.9991455,20.130615 1.9998169,20.0 C1.9998169,20.0 1.9998169,5.999878 1.9998169,5.999878 C1.9998169,5.447998 2.454956,4.999756 2.9919434,4.999756 C2.9919434,4.999756 8.585815,4.999756 8.585815,4.999756 C8.585815,4.999756 6.0498047,2.4638672 6.0498047,2.4638672 C6.0498047,2.4638672 7.463928,1.0498047 7.463928,1.0498047 C7.463928,1.0498047 11.41394,4.999756 11.41394,4.999756 C11.41394,4.999756 12.585693,4.999756 12.585693,4.999756 C12.585693,4.999756 16.535767,1.0498047 16.535767,1.0498047 C16.535767,1.0498047 17.94983,2.4638672 17.94983,2.4638672 C17.94983,2.4638672 15.413879,4.999756 15.413879,4.999756 ZM3.999878,6.999878 C3.999878,6.999878 19.999878,6.999878 19.999878,6.999878 C19.999878,6.999878 19.999878,18.999878 19.999878,18.999878 C19.999878,18.999878 3.999878,18.999878 3.999878,18.999878 C3.999878,18.999878 3.999878,6.999878 3.999878,6.999878 Z"/>
</svg>