<svg xmlns="http://www.w3.org/2000/svg"
 xmlns:xlink="http://www.w3.org/1999/xlink"
 width="16px" height="21px"  viewBox="0 0 16 21">
<path fill-rule="evenodd"  fill="#000000"
 d="M1.9998474,1.9998779 C1.9998474,1.9998779 8.999847,1.9998779 8.999847,1.9998779 C10.591156,1.9998779 12.11734,2.63208 13.242401,3.7573242 C14.367706,4.8825684 14.999756,6.4086914 14.999756,7.999878 C14.999756,9.591187 14.367706,11.11731 13.242401,12.242554 C12.11734,13.367798 10.591156,13.999878 8.999847,13.999878 C8.999847,13.999878 3.999817,13.999878 3.999817,13.999878 C3.999817,13.999878 3.999817,20.0 3.999817,20.0 C3.999817,20.0 1.9998474,20.0 1.9998474,20.0 C1.9998474,20.0 1.9998474,1.9998779 1.9998474,1.9998779 ZM3.999817,4.0 C3.999817,4.0 3.999817,11.999878 3.999817,11.999878 C3.999817,11.999878 8.999847,11.999878 8.999847,11.999878 C10.060608,11.999878 11.078217,11.578369 11.828247,10.828247 C12.57843,10.078125 12.999786,9.060791 12.999786,7.999878 C12.999786,6.939087 12.57843,5.921631 11.828247,5.1713867 C11.078217,4.4212646 10.060608,4.0 8.999847,4.0 C8.999847,4.0 3.999817,4.0 3.999817,4.0 Z"/>
</svg>