<svg xmlns="http://www.w3.org/2000/svg"
 xmlns:xlink="http://www.w3.org/1999/xlink"
 width="26px" height="21px"  viewBox="0 0 26 21">
<path fill-rule="evenodd"  fill="#000000"
 d="M1.999939,5.9969482 C5.199005,3.4052734 9.19278,1.9938965 13.309784,1.9998779 C17.59491,1.9998779 21.529846,3.4969482 24.619751,5.9969482 C24.619751,5.9969482 23.36377,7.5529785 23.36377,7.5529785 C20.520142,5.2489014 16.969727,3.9942627 13.309784,3.999878 C9.500732,3.999878 6.0037537,5.329834 3.2559204,7.5529785 C3.2559204,7.5529785 1.999939,5.9969482 1.999939,5.9969482 ZM5.140747,9.886841 C7.451538,8.014893 10.336151,6.9953613 13.309784,6.999756 C16.403809,6.999756 19.24585,8.080811 21.478699,9.885864 C21.478699,9.885864 20.221802,11.441895 20.221802,11.441895 C18.266663,9.858154 15.825867,8.995972 13.309784,8.999878 C10.6918335,8.999878 8.286865,9.914795 6.397888,11.441895 C6.397888,11.441895 5.140747,9.885864 5.140747,9.885864 C5.140747,9.885864 5.140747,9.886841 5.140747,9.886841 ZM8.282959,13.776855 C9.704773,12.624878 11.479767,11.997192 13.309784,11.999756 C15.213745,11.999756 16.96286,12.665039 18.336731,13.775757 C18.336731,13.775757 17.079803,15.331909 17.079803,15.331909 C16.013458,14.46814 14.682037,13.997803 13.309784,13.999878 C11.881897,13.999878 10.569946,14.499023 9.539856,15.331909 C9.539856,15.331909 8.282959,13.775757 8.282959,13.775757 C8.282959,13.775757 8.282959,13.776855 8.282959,13.776855 ZM11.424927,17.666748 C11.958008,17.23462 12.623596,16.998901 13.309784,17.0 C14.023895,17.0 14.679749,17.249878 15.194733,17.666016 C15.194733,17.666016 13.309784,19.999878 13.309784,19.999878 C13.309784,19.999878 11.424927,17.666016 11.424927,17.666016 C11.424927,17.666016 11.424927,17.666748 11.424927,17.666748 Z"/>
</svg>