<svg xmlns="http://www.w3.org/2000/svg"
 xmlns:xlink="http://www.w3.org/1999/xlink"
 width="30px" height="27px"  viewBox="0 0 30 27">
<path fill-rule="evenodd"  fill="#70c560"
 d="M2.999878,1.9998627 C2.999878,1.9998627 26.999756,1.9998627 26.999756,1.9998627 C27.353394,1.9998627 27.692566,2.140358 27.942627,2.3902664 C28.192566,2.6405563 28.333252,2.979416 28.333252,3.333168 C28.333252,3.333168 28.333252,24.666595 28.333252,24.666595 C28.333252,25.019958 28.192566,25.359192 27.942627,25.609116 C27.692566,25.85939 27.353394,25.999893 26.999756,25.999893 C26.999756,25.999893 2.999878,25.999893 2.999878,25.999893 C2.6463013,25.999893 2.3069458,25.85939 2.0570068,25.609116 C1.8069458,25.359192 1.6664429,25.019958 1.6664429,24.666595 C1.6664429,24.666595 1.6664429,3.333168 1.6664429,3.333168 C1.6664429,2.979416 1.8069458,2.6405563 2.0570068,2.3902664 C2.3069458,2.140358 2.6463013,1.9998627 2.999878,1.9998627 C2.999878,1.9998627 2.999878,1.9998627 2.999878,1.9998627 ZM25.666504,7.6505356 C25.666504,7.6505356 15.095825,17.117088 15.095825,17.117088 C15.095825,17.117088 4.33313,7.620949 4.33313,7.620949 C4.33313,7.620949 4.33313,23.333282 4.33313,23.333282 C4.33313,23.333282 25.666504,23.333282 25.666504,23.333282 C25.666504,23.333282 25.666504,7.6505356 25.666504,7.6505356 ZM5.0144043,4.6664658 C5.0144043,4.6664658 15.081177,13.549088 15.081177,13.549088 C15.081177,13.549088 25.002563,4.6664658 25.002563,4.6664658 C25.002563,4.6664658 5.0144043,4.6664658 5.0144043,4.6664658 Z"/>
</svg>