<svg xmlns="http://www.w3.org/2000/svg"
 xmlns:xlink="http://www.w3.org/1999/xlink"
 width="22px" height="25px"  viewBox="0 0 22 25">
<path fill-rule="evenodd"  fill="#ff6b00"
 d="M10.999878,23.727722 C10.999878,23.727722 4.6358643,17.363953 4.6358643,17.363953 C3.3771973,16.105164 2.5201416,14.501465 2.1726074,12.755737 C1.8255615,11.009949 2.003662,9.200317 2.6849365,7.555725 C3.3660889,5.911194 4.5196533,4.5056763 5.999634,3.5167847 C7.4797363,2.527832 9.219849,2.0 10.999878,2.0 C12.779907,2.0 14.52002,2.527832 15.999878,3.5167847 C17.47998,4.5056763 18.633545,5.911194 19.314697,7.555725 C19.99585,9.200317 20.174194,11.009949 19.826904,12.755737 C19.479614,14.501465 18.622437,16.105164 17.363892,17.363953 C17.363892,17.363953 10.999878,23.727722 10.999878,23.727722 C10.999878,23.727722 10.999878,23.727722 10.999878,23.727722 ZM10.999878,20.899963 C10.999878,20.899963 15.949829,15.94989 15.949829,15.94989 C16.928955,14.970825 17.595459,13.723694 17.865479,12.365784 C18.135376,11.007935 17.996826,9.600342 17.467041,8.32135 C16.937134,7.0424194 16.039795,5.9492188 14.888916,5.1799316 C13.737549,4.4109497 12.384277,4.000366 10.999878,4.000366 C9.615356,4.000366 8.262207,4.4109497 7.11084,5.1799316 C5.959839,5.9492188 5.062622,7.0424194 4.532715,8.32135 C4.0029297,9.600342 3.8642578,11.007935 4.1342773,12.365784 C4.404419,13.723694 5.070923,14.970825 6.0498047,15.94989 C6.0498047,15.94989 10.999878,20.899963 10.999878,20.899963 ZM10.999878,14.999817 C9.939087,14.999817 8.921509,14.578552 8.171509,13.828186 C7.4212646,13.078125 6.999878,12.06073 6.999878,10.999878 C6.999878,9.939026 7.4212646,8.921631 8.171509,8.17157 C8.921509,7.4212036 9.939087,6.999939 10.999878,6.999939 C12.060669,6.999939 13.078125,7.4212036 13.828247,8.17157 C14.578491,8.921631 14.999878,9.939026 14.999878,10.999878 C14.999878,12.06073 14.578491,13.078125 13.828247,13.828186 C13.078125,14.578552 12.060669,14.999817 10.999878,14.999817 ZM10.999878,13.0 C11.530151,13.0 12.03894,12.789124 12.4140625,12.414185 C12.789185,12.039001 12.999878,11.530334 12.999878,10.999878 C12.999878,10.469482 12.789185,9.960754 12.4140625,9.585571 C12.03894,9.210693 11.530151,8.999817 10.999878,8.999817 C10.46936,8.999817 9.960815,9.210693 9.585693,9.585571 C9.210571,9.960754 8.999878,10.469482 8.999878,10.999878 C8.999878,11.530334 9.210571,12.039001 9.585693,12.414185 C9.960815,12.789124 10.46936,13.0 10.999878,13.0 Z"/>
</svg>