<svg xmlns="http://www.w3.org/2000/svg"
 xmlns:xlink="http://www.w3.org/1999/xlink"
 width="27px" height="27px"  viewBox="0 0 27 27">
<path fill-rule="evenodd"  fill="#70c560"
 d="M10.487793,12.2423935 C11.739014,14.440437 13.559082,16.260727 15.75708,17.51178 C15.75708,17.51178 16.935791,15.861198 16.935791,15.861198 C17.125488,15.59584 17.405518,15.409012 17.72351,15.33625 C18.041504,15.263489 18.375,15.30983 18.661133,15.466324 C20.546875,16.497055 22.629395,17.116905 24.77185,17.285126 C25.106201,17.311554 25.418213,17.463028 25.645996,17.709404 C25.873535,17.955963 25.999878,18.279007 25.999878,18.614525 C25.999878,18.614525 25.999878,24.563873 25.999878,24.563873 C25.999878,24.893982 25.877563,25.212189 25.656372,25.45726 C25.435059,25.70253 25.130981,25.856796 24.802612,25.890472 C24.095825,25.96379 23.38379,25.999893 22.666626,25.999893 C11.253174,25.999893 1.9997559,16.746407 1.9997559,5.333214 C1.9997559,4.6156693 2.0357666,3.9037018 2.1091309,3.1969528 C2.1429443,2.8686981 2.2972412,2.5644455 2.5423584,2.3431854 C2.7872314,2.122116 3.1055908,1.9998627 3.435913,1.9998627 C3.435913,1.9998627 9.385254,1.9998627 9.385254,1.9998627 C9.720581,1.9998627 10.043579,2.12603 10.290161,2.353798 C10.536499,2.581192 10.687866,2.8934479 10.7146,3.2278442 C10.88269,5.370247 11.502686,7.452545 12.533203,9.338524 C12.689819,9.624535 12.736084,9.958 12.66333,10.276024 C12.590576,10.59404 12.403931,10.87429 12.138428,11.063911 C12.138428,11.063911 10.487793,12.2423935 10.487793,12.2423935 C10.487793,12.2423935 10.487793,12.2423935 10.487793,12.2423935 ZM7.125122,11.366295 C7.125122,11.366295 9.658569,9.557175 9.658569,9.557175 C8.939575,8.0052185 8.4470215,6.3583603 8.195801,4.6664658 C8.195801,4.6664658 4.6798096,4.6664658 4.6798096,4.6664658 C4.671875,4.887726 4.6678467,5.110466 4.6678467,5.333214 C4.666504,15.274467 12.72522,23.333282 22.666626,23.333282 C22.88916,23.333282 23.111816,23.32901 23.33313,23.319702 C23.33313,23.319702 23.33313,19.803795 23.33313,19.803795 C21.641357,19.552765 19.994385,19.060013 18.442505,18.340973 C18.442505,18.340973 16.633057,20.874344 16.633057,20.874344 C15.904541,20.591309 15.197266,20.257286 14.515869,19.874321 C14.515869,19.874321 14.4383545,19.830406 14.4383545,19.830406 C11.823242,18.342094 9.657471,16.17643 8.169312,13.560997 C8.169312,13.560997 8.125122,13.483955 8.125122,13.483955 C7.7423096,12.802322 7.408081,12.095009 7.125122,11.366295 C7.125122,11.366295 7.125122,11.366295 7.125122,11.366295 Z"/>
</svg>