<svg xmlns="http://www.w3.org/2000/svg"
 xmlns:xlink="http://www.w3.org/1999/xlink"
 width="26px" height="23px"  viewBox="0 0 26 23">
<path fill-rule="evenodd"  fill="#ff6b00"
 d="M15.599731,8.999756 C15.599731,8.999756 21.999725,8.999756 21.999725,8.999756 C22.530273,8.999756 23.038849,9.210693 23.414001,9.585693 C23.789124,9.960693 23.999817,10.469482 23.999817,10.999756 C23.999817,10.999756 23.999817,13.104004 23.999817,13.104004 C24.00003,13.365234 23.949097,13.624023 23.849884,13.865967 C23.849884,13.865967 20.754822,21.38086 20.754822,21.38086 C20.679321,21.564209 20.551147,21.720703 20.386444,21.83081 C20.221771,21.941162 20.028015,21.999756 19.829803,21.999756 C19.829803,21.999756 2.9999084,21.999756 2.9999084,21.999756 C2.7346191,21.999756 2.4802246,21.894531 2.2926636,21.707031 C2.1051025,21.519287 1.9999084,21.264893 1.9999084,20.999756 C1.9999084,20.999756 1.9999084,10.999756 1.9999084,10.999756 C1.9999084,10.734619 2.1051025,10.480225 2.2926636,10.292725 C2.4802246,10.105225 2.7346191,9.999756 2.9999084,9.999756 C2.9999084,9.999756 6.4818726,9.999756 6.4818726,9.999756 C6.641876,9.999756 6.7995605,9.961426 6.9418335,9.887695 C7.084076,9.814209 7.206421,9.707764 7.298889,9.57666 C7.298889,9.57666 12.751862,1.8498535 12.751862,1.8498535 C12.820862,1.7521973 12.922394,1.6826172 13.038422,1.6533203 C13.154358,1.6240234 13.2769165,1.6374512 13.3836975,1.6906738 C13.3836975,1.6906738 15.197815,2.5979004 15.197815,2.5979004 C15.708435,2.8530273 16.116089,3.2751465 16.353668,3.7941895 C16.590912,4.3132324 16.643677,4.897949 16.502777,5.4509277 C16.502777,5.4509277 15.599731,8.999756 15.599731,8.999756 ZM7.999817,11.587891 C7.999817,11.587891 7.999817,19.999756 7.999817,19.999756 C7.999817,19.999756 19.159882,19.999756 19.159882,19.999756 C19.159882,19.999756 21.999725,13.104004 21.999725,13.104004 C21.999725,13.104004 21.999725,10.999756 21.999725,10.999756 C21.999725,10.999756 15.599731,10.999756 15.599731,10.999756 C15.295197,10.999756 14.99469,10.930176 14.721161,10.796143 C14.44754,10.6623535 14.208008,10.467773 14.021118,10.227295 C13.834259,9.986816 13.704468,9.707031 13.642334,9.408691 C13.580078,9.110596 13.5868225,8.802002 13.661682,8.506836 C13.661682,8.506836 14.56485,4.9589844 14.56485,4.9589844 C14.592987,4.8481445 14.582581,4.731201 14.535217,4.6271973 C14.48761,4.5234375 14.405884,4.438965 14.303925,4.3879395 C14.303925,4.3879395 13.642792,4.0578613 13.642792,4.0578613 C13.642792,4.0578613 8.932739,10.729736 8.932739,10.729736 C8.6828,11.083984 8.362732,11.373779 7.999817,11.587891 C7.999817,11.587891 7.999817,11.587891 7.999817,11.587891 ZM4.0,12.0 C4.0,12.0 5.9999695,12.0 5.9999695,12.0 C5.9999695,12.0 5.9999695,19.999756 5.9999695,19.999756 C5.9999695,19.999756 4.0,19.999756 4.0,19.999756 C4.0,19.999756 4.0,12.0 4.0,12.0 Z"/>
</svg>