<svg xmlns="http://www.w3.org/2000/svg"
 xmlns:xlink="http://www.w3.org/1999/xlink"
 width="21px" height="23px"  viewBox="0 0 21 23">
<path fill-rule="evenodd"  fill="#ff6b00"
 d="M7.9997864,2.0029297 C7.9997864,2.0029297 7.9997864,1.9997559 7.9997864,1.9997559 C7.9997864,1.9997559 18.997925,1.9997559 18.997925,1.9997559 C19.549744,1.9997559 19.999725,2.4550781 19.999725,2.9919434 C19.999725,2.9919434 19.999725,21.008057 19.999725,21.008057 C19.999512,21.270996 19.894775,21.523438 19.708588,21.709473 C19.5224,21.895508 19.269928,22.0 19.006714,22.0 C19.006714,22.0 2.9928894,22.0 2.9928894,22.0 C2.8616333,21.999023 2.7316284,21.972412 2.6106567,21.921143 C2.489685,21.870117 2.380066,21.795654 2.2878113,21.702148 C2.1955872,21.608398 2.1226807,21.497803 2.0732422,21.37622 C2.0239258,21.254639 1.9989624,21.124023 1.9998779,20.99292 C1.9998779,20.99292 1.9998779,7.999756 1.9998779,7.999756 C1.9998779,7.999756 7.9997864,2.0029297 7.9997864,2.0029297 ZM9.999878,4.0 C9.999878,4.0 9.999878,9.0 9.999878,9.0 C9.999878,9.265137 9.894348,9.519531 9.706787,9.707031 C9.51947,9.894287 9.265045,10.0 8.999878,10.0 C8.999878,10.0 3.9998474,10.0 3.9998474,10.0 C3.9998474,10.0 3.9998474,20.0 3.9998474,20.0 C3.9998474,20.0 17.999756,20.0 17.999756,20.0 C17.999756,20.0 17.999756,4.0 17.999756,4.0 C17.999756,4.0 9.999878,4.0 9.999878,4.0 ZM4.829895,7.999756 C4.829895,7.999756 7.9997864,7.999756 7.9997864,7.999756 C7.9997864,7.999756 7.9997864,4.830078 7.9997864,4.830078 C7.9997864,4.830078 4.829895,7.999756 4.829895,7.999756 Z"/>
</svg>