<svg xmlns="http://www.w3.org/2000/svg"
 xmlns:xlink="http://www.w3.org/1999/xlink"
 width="23px" height="23px"  viewBox="0 0 23 23">
<path fill-rule="evenodd"  fill="#ff6b00"
 d="M11.999878,13.0 C13.65686,13.0 14.999817,14.342773 14.999817,15.999756 C14.999817,16.849854 14.646881,17.615967 14.079834,18.161865 C14.079834,18.161865 12.1698,19.999756 12.1698,19.999756 C12.1698,19.999756 14.999817,19.999756 14.999817,19.999756 C14.999817,19.999756 14.999817,21.999756 14.999817,21.999756 C14.999817,21.999756 8.999786,21.999756 8.999786,21.999756 C8.999786,21.999756 8.999786,20.275879 8.999786,20.275879 C8.999786,20.275879 12.692932,16.720947 12.692932,16.720947 C12.882782,16.537842 12.999847,16.282959 12.999847,15.999756 C12.999847,15.447998 12.551819,14.999756 11.999878,14.999756 C11.447815,14.999756 10.999878,15.447998 10.999878,15.999756 C10.999878,15.999756 8.999786,15.999756 8.999786,15.999756 C8.999786,14.342773 10.342773,13.0 11.999878,13.0 ZM17.999756,13.0 C17.999756,13.0 17.999756,17.0 17.999756,17.0 C17.999756,17.0 19.999756,17.0 19.999756,17.0 C19.999756,17.0 19.999756,13.0 19.999756,13.0 C19.999756,13.0 21.999817,13.0 21.999817,13.0 C21.999817,13.0 21.999817,21.999756 21.999817,21.999756 C21.999817,21.999756 19.999756,21.999756 19.999756,21.999756 C19.999756,21.999756 19.999756,19.0 19.999756,19.0 C19.999756,19.0 15.999817,19.0 15.999817,19.0 C15.999817,19.0 15.999817,13.0 15.999817,13.0 C15.999817,13.0 17.999756,13.0 17.999756,13.0 ZM3.999878,12.0 C3.999878,14.526855 5.1708374,16.78003 6.999817,18.24585 C6.999817,18.24585 6.999817,20.661865 6.999817,20.661865 C4.010742,18.932861 1.9999084,15.70166 1.9999084,12.0 C1.9999084,12.0 3.999878,12.0 3.999878,12.0 ZM11.999878,2.0 C17.184845,2.0 21.448914,5.9467773 21.94983,11.0 C21.94983,11.0 19.937836,11.0 19.937836,11.0 C19.445953,7.053711 16.079803,3.9997559 11.999878,3.9997559 C9.249847,3.9997559 6.823822,5.386963 5.3849487,7.499756 C5.3849487,7.499756 7.999817,7.499756 7.999817,7.499756 C7.999817,7.499756 7.999817,9.5 7.999817,9.5 C7.999817,9.5 1.9999084,9.5 1.9999084,9.5 C1.9999084,9.5 1.9999084,3.5 1.9999084,3.5 C1.9999084,3.5 3.999878,3.5 3.999878,3.5 C3.999878,3.5 3.999878,6.0 3.999878,6.0 C5.823822,3.5698242 8.72879,2.0 11.999878,2.0 Z"/>
</svg>