<svg xmlns="http://www.w3.org/2000/svg"
 xmlns:xlink="http://www.w3.org/1999/xlink"
 width="26px" height="20px"  viewBox="0 0 26 20">
<path fill-rule="evenodd"  fill="#ff6b00"
 d="M6.8888245,13.999756 C6.8888245,13.999756 2.9999084,13.999756 2.9999084,13.999756 C2.7346191,13.999756 2.4802246,13.894531 2.2926636,13.707031 C2.1051025,13.519287 1.9999084,13.264893 1.9999084,12.999756 C1.9999084,12.999756 1.9999084,6.999756 1.9999084,6.999756 C1.9999084,6.734619 2.1051025,6.4802246 2.2926636,6.2929688 C2.4802246,6.1052246 2.7346191,6.0 2.9999084,6.0 C2.9999084,6.0 6.8888245,6.0 6.8888245,6.0 C6.8888245,6.0 12.182739,1.6677246 12.182739,1.6677246 C12.2561035,1.6079102 12.34491,1.5698242 12.438751,1.5583496 C12.532959,1.5466309 12.628174,1.5620117 12.713745,1.6025391 C12.799591,1.6433105 12.871704,1.7072754 12.922394,1.7873535 C12.972961,1.8674316 12.999878,1.9602051 12.999878,2.0549316 C12.999878,2.0549316 12.999878,17.944824 12.999878,17.944824 C12.999878,18.03955 12.972961,18.132568 12.922394,18.212402 C12.871704,18.29248 12.799591,18.356445 12.713745,18.397217 C12.628174,18.4375 12.532959,18.453125 12.438751,18.441406 C12.34491,18.429932 12.2561035,18.39209 12.182739,18.332031 C12.182739,18.332031 6.88974,13.999756 6.88974,13.999756 C6.88974,13.999756 6.8888245,13.999756 6.8888245,13.999756 ZM10.999878,5.2199707 C10.999878,5.2199707 7.602844,7.999756 7.602844,7.999756 C7.602844,7.999756 3.999878,7.999756 3.999878,7.999756 C3.999878,7.999756 3.999878,12.0 3.999878,12.0 C3.999878,12.0 7.602844,12.0 7.602844,12.0 C7.602844,12.0 10.999878,14.780029 10.999878,14.780029 C10.999878,14.780029 10.999878,5.2199707 10.999878,5.2199707 ZM21.413788,10.0 C21.413788,10.0 24.949768,13.535889 24.949768,13.535889 C24.949768,13.535889 23.535858,14.949951 23.535858,14.949951 C23.535858,14.949951 19.999756,11.413818 19.999756,11.413818 C19.999756,11.413818 16.463745,14.949951 16.463745,14.949951 C16.463745,14.949951 15.049744,13.535889 15.049744,13.535889 C15.049744,13.535889 18.585846,10.0 18.585846,10.0 C18.585846,10.0 15.049744,6.463867 15.049744,6.463867 C15.049744,6.463867 16.463745,5.0498047 16.463745,5.0498047 C16.463745,5.0498047 19.999756,8.5859375 19.999756,8.5859375 C19.999756,8.5859375 23.535858,5.0498047 23.535858,5.0498047 C23.535858,5.0498047 24.949768,6.463867 24.949768,6.463867 C24.949768,6.463867 21.413788,10.0 21.413788,10.0 Z"/>
</svg>