<svg xmlns="http://www.w3.org/2000/svg"
 xmlns:xlink="http://www.w3.org/1999/xlink"
 width="22px" height="23px"  viewBox="0 0 22 23">
<path fill-rule="evenodd"  fill="#ff6b00"
 d="M1.9998779,2.9919434 C1.9998779,2.4438477 2.4468994,2.0 2.9987183,2.0 C2.9987183,2.0 14.999817,2.0 14.999817,2.0 C14.999817,2.0 19.999725,7.0 19.999725,7.0 C19.999725,7.0 19.999725,20.992676 19.999725,20.992676 C20.000763,21.124268 19.975708,21.254395 19.926483,21.375977 C19.876923,21.497803 19.804138,21.608643 19.711914,21.701904 C19.619568,21.79541 19.509918,21.869873 19.388947,21.921143 C19.268097,21.972168 19.138092,21.999023 19.006714,21.999756 C19.006714,21.999756 2.9928894,21.999756 2.9928894,21.999756 C2.7302551,21.998047 2.4788208,21.893066 2.2930908,21.70752 C2.1072388,21.521729 2.0019531,21.270508 1.9998779,21.007812 C1.9998779,21.007812 1.9998779,2.9919434 1.9998779,2.9919434 ZM13.999817,3.9997559 C13.999817,3.9997559 3.9998474,3.9997559 3.9998474,3.9997559 C3.9998474,3.9997559 3.9998474,20.0 3.9998474,20.0 C3.9998474,20.0 17.999756,20.0 17.999756,20.0 C17.999756,20.0 17.999756,8.0 17.999756,8.0 C17.999756,8.0 13.999817,8.0 13.999817,8.0 C13.999817,8.0 13.999817,3.9997559 13.999817,3.9997559 ZM9.999878,14.999756 C9.999878,14.999756 11.999847,14.999756 11.999847,14.999756 C11.999847,14.999756 11.999847,16.999756 11.999847,16.999756 C11.999847,16.999756 9.999878,16.999756 9.999878,16.999756 C9.999878,16.999756 9.999878,14.999756 9.999878,14.999756 ZM10.0,7.0 C10.0,7.0 11.9999695,7.0 11.9999695,7.0 C11.9999695,7.0 11.9999695,13.0 11.9999695,13.0 C11.9999695,13.0 10.0,13.0 10.0,13.0 C10.0,13.0 10.0,7.0 10.0,7.0 Z"/>
</svg>