<svg xmlns="http://www.w3.org/2000/svg"
 xmlns:xlink="http://www.w3.org/1999/xlink"
 width="36px" height="36px"  viewBox="0 0 36 36">
<path fill-rule="evenodd"  fill="#ffffff"
 d="M18.0,1.3436279 C27.198975,1.3436279 34.656128,8.800842 34.656128,18.0 C34.656128,27.198853 27.198975,34.656067 18.0,34.656067 C8.801025,34.656067 1.34375,27.198853 1.34375,18.0 C1.34375,8.800842 8.801025,1.3436279 18.0,1.3436279 ZM17.999756,31.333313 C21.536133,31.333313 24.927368,29.928345 27.427979,27.4281 C29.928467,24.927612 31.33313,21.53595 31.33313,18.0 C31.33313,14.463745 29.928467,11.072388 27.427979,8.571899 C24.927368,6.07135 21.536133,4.666626 17.999756,4.666626 C14.463745,4.666626 11.072144,6.07135 8.571777,8.571899 C6.071411,11.072388 4.666626,14.463745 4.666626,18.0 C4.666626,21.53595 6.071411,24.927612 8.571777,27.4281 C11.072144,29.928345 14.463745,31.333313 17.999756,31.333313 C17.999756,31.333313 17.999756,31.333313 17.999756,31.333313 ZM12.816406,19.94989 C12.816406,19.94989 8.653198,18.65149 8.653198,18.65149 C7.7530518,18.376465 7.748291,17.75653 8.854736,17.311462 C8.854736,17.311462 25.076538,11.044922 25.076538,11.044922 C26.018188,10.661499 26.551636,11.146606 26.24646,12.36145 C26.24646,12.36145 23.484741,25.394897 23.484741,25.394897 C23.291626,26.323242 22.733154,26.544983 21.95813,26.116516 C21.95813,26.116516 17.706543,22.96991 17.706543,22.96991 C17.706543,22.96991 15.7248535,24.883057 15.7248535,24.883057 C15.521484,25.080017 15.356445,25.248169 15.043335,25.289856 C14.731567,25.333313 14.4748535,25.239868 14.286621,24.723206 C14.286621,24.723206 12.836548,19.938232 12.836548,19.938232 C12.836548,19.938232 12.816406,19.951416 12.816406,19.951416 C12.816406,19.951416 12.816406,19.94989 12.816406,19.94989 Z"/>
</svg>