<svg xmlns="http://www.w3.org/2000/svg"
 xmlns:xlink="http://www.w3.org/1999/xlink"
 width="36px" height="36px"  viewBox="0 0 36 36">
<path fill-rule="evenodd"  fill="#ffffff"
 d="M1.3398438,34.666443 C1.3398438,34.666443 3.5930176,26.386658 3.5930176,26.386658 C2.1083984,23.84137 1.3282471,20.946594 1.3331299,18.0 C1.3331299,8.794922 8.794922,1.333252 17.999756,1.333252 C27.204834,1.333252 34.666504,8.794922 34.666504,18.0 C34.666504,27.204773 27.204834,34.666443 17.999756,34.666443 C15.054443,34.671387 12.161011,33.891785 9.616455,32.408142 C9.616455,32.408142 1.3398438,34.666443 1.3398438,34.666443 ZM10.088135,28.823242 C10.088135,28.823242 11.294922,29.52832 11.294922,29.52832 C13.329834,30.714905 15.644165,31.337952 17.999756,31.333313 C20.636963,31.333313 23.214844,30.551147 25.40747,29.08612 C27.600098,27.621094 29.309204,25.538757 30.318237,23.102417 C31.327393,20.666077 31.591553,17.984985 31.076904,15.39856 C30.562622,12.812195 29.292725,10.436401 27.427979,8.571899 C25.563232,6.7070923 23.1875,5.437195 20.600952,4.9228516 C18.014526,4.408203 15.33374,4.6723633 12.897339,5.6814575 C10.4609375,6.6905518 8.378662,8.399536 6.913574,10.592163 C5.4484863,12.785034 4.666626,15.362854 4.666626,18.0 C4.666626,20.393127 5.2948,22.688171 6.4732666,24.706604 C6.4732666,24.706604 7.1765137,25.913147 7.1765137,25.913147 C7.1765137,25.913147 6.088135,29.914856 6.088135,29.914856 C6.088135,29.914856 10.088135,28.823242 10.088135,28.823242 ZM11.984741,10.179993 C12.20813,10.163147 12.433228,10.163147 12.656616,10.173279 C12.746582,10.179993 12.836548,10.189819 12.926514,10.19989 C13.191528,10.229919 13.483154,10.391602 13.581421,10.614929 C14.078247,11.741516 14.561523,12.876587 15.028198,14.014832 C15.13147,14.268127 15.069824,14.59314 14.873047,14.90979 C14.737915,15.124084 14.591553,15.331055 14.434814,15.529785 C14.246582,15.771423 13.841431,16.214905 13.841431,16.214905 C13.841431,16.214905 13.676514,16.41156 13.739868,16.656616 C13.763184,16.749756 13.839722,16.884827 13.909912,16.998108 C13.909912,16.998108 14.008179,17.156494 14.008179,17.156494 C14.434814,17.868286 15.008179,18.589905 15.708252,19.269897 C15.908203,19.463196 16.10315,19.661621 16.31311,19.846619 C17.09314,20.534912 17.97644,21.096619 18.929932,21.513245 C18.929932,21.513245 18.938232,21.516602 18.938232,21.516602 C19.079712,21.578186 19.15149,21.611511 19.358276,21.699768 C19.461426,21.743225 19.568115,21.781555 19.676392,21.809998 C19.78833,21.83844 19.906372,21.833008 20.015259,21.794495 C20.124268,21.75592 20.218994,21.685791 20.288086,21.59314 C21.494873,20.13153 21.604736,20.03656 21.61499,20.03656 C21.61499,20.03656 21.61499,20.039917 21.61499,20.039917 C21.698608,19.961792 21.79834,19.902283 21.906982,19.865784 C22.015503,19.829285 22.13086,19.816345 22.244995,19.828247 C22.344849,19.834717 22.446533,19.853088 22.539795,19.894775 C23.424805,20.299988 24.873169,20.93158 24.873169,20.93158 C24.873169,20.93158 25.843262,21.366516 25.843262,21.366516 C26.006348,21.444885 26.154907,21.629883 26.15979,21.808167 C26.166504,21.919983 26.176514,22.099792 26.138184,22.429932 C26.084839,22.861511 25.954834,23.379822 25.824951,23.65149 C25.73584,23.836975 25.617676,24.006958 25.474854,24.154968 C25.30664,24.331482 25.122559,24.492126 24.924805,24.634949 C24.856323,24.686218 24.786987,24.73639 24.71643,24.78479 C24.509277,24.916443 24.296143,25.03888 24.078125,25.151428 C23.64917,25.379395 23.175049,25.510315 22.689941,25.534851 C22.381592,25.551453 22.072998,25.574951 21.763184,25.558167 C21.749756,25.558167 20.81665,25.413269 20.81665,25.413269 C18.446777,24.789917 16.255615,23.622253 14.416504,22.003296 C14.039795,21.67157 13.691528,21.314758 13.334961,20.959778 C11.8515625,19.484924 10.731445,17.893127 10.051392,16.389832 C9.703369,15.6519165 9.515381,14.848755 9.499756,14.033203 C9.49292,13.02124 9.823853,12.03595 10.439941,11.233337 C10.561523,11.076538 10.676514,10.913269 10.874878,10.724915 C11.086548,10.524902 11.219727,10.418274 11.364746,10.344788 C11.557617,10.248291 11.767822,10.19165 11.983154,10.178162 C11.983154,10.178162 11.984741,10.179993 11.984741,10.179993 Z"/>
</svg>